<svg id="Layer_1" data-name="Layer 1" xmlns="http://www.w3.org/2000/svg" width="170" height="30" viewBox="0 0 170 30">
  <g>
    <path d="M4.73,12.76a6.17,6.17,0,1,1,7.46-7.42,6.17,6.17,0,1,1,7.5,7.43,6.17,6.17,0,1,1-7.51,7.4,6.17,6.17,0,1,1-7.45-7.41Zm1.44,3.61a2.39,2.39,0,1,1-2.39,2.39h0A2.39,2.39,0,0,1,6.17,16.37Zm12,0a2.39,2.39,0,1,1-2.39,2.39h0a2.39,2.39,0,0,1,2.39-2.39h0Zm-6-8.16a6.22,6.22,0,0,1-4.56,4.55,6.21,6.21,0,0,1,4.55,4.59,6.22,6.22,0,0,1,4.52-4.58,6.16,6.16,0,0,1-4.49-4.56Zm6-3.82A2.39,2.39,0,1,1,15.8,6.8v0a2.39,2.39,0,0,1,2.39-2.39h0Z" style="fill: #ff5722;fill-rule: evenodd"/>
    <path d="M35.57,23.19h2.56V14.53a3.48,3.48,0,0,1,.21-1.28,3.63,3.63,0,0,1,3.25-2.62c2,0,3,1.63,3,3.93v8.63h2.56v-8.9A4.7,4.7,0,0,1,47.36,13a3.45,3.45,0,0,1,3.13-2.35c2.08,0,3.13,1.63,3.13,4.43v8.13h2.56V14.73c0-5-2.83-6.25-4.77-6.25a4.84,4.84,0,0,0-3.15,1,5.7,5.7,0,0,0-1.64,1.88h-.06a4.26,4.26,0,0,0-4.05-2.89A5,5,0,0,0,38,11.13h-.09L37.8,8.78H35.5c.06,1.19.12,2.38.12,3.9Z" style="fill: #403f41"/>
    <path d="M62.43,23.19V8.78H59.81V23.19ZM61.12,3.09a1.61,1.61,0,0,0-1.64,1.56v.08A1.55,1.55,0,0,0,61,6.34h.09a1.57,1.57,0,0,0,1.67-1.47V4.73a1.58,1.58,0,0,0-1.52-1.64Z" style="fill: #403f41"/>
    <path d="M69,23.19V10.77h3.48v-2H69V8c0-2.24.56-4.17,2.8-4.17a3.78,3.78,0,0,1,1.66.32l.36-2a5.89,5.89,0,0,0-2.23-.42,5.1,5.1,0,0,0-3.52,1.34,6.91,6.91,0,0,0-1.66,5v.69h-2v2h2V23.19Z" style="fill: #403f41"/>
    <path d="M84.4,14.35c0-2.86-1.07-5.87-5.48-5.87a9.46,9.46,0,0,0-4.76,1.25l.59,1.76a7,7,0,0,1,3.79-1.07,3,3,0,0,1,3.27,3.3V14c-5.57,0-8.66,1.88-8.66,5.36a4.11,4.11,0,0,0,4.07,4.15h.33A5.35,5.35,0,0,0,82,21.37h.09l.21,1.82h2.35a24.87,24.87,0,0,1-.21-3.45Zm-2.53,4a2.92,2.92,0,0,1-.12.83,3.63,3.63,0,0,1-3.54,2.41,2.28,2.28,0,0,1-2.44-2.12,2.41,2.41,0,0,1,0-.38c0-2.8,3.24-3.3,6.1-3.24Z" style="fill: #403f41"/>
    <path d="M97.86,20.72a7.6,7.6,0,0,1-3.22.68c-2.86,0-5-2-5-5.39,0-3,1.79-5.44,5.09-5.44a6.37,6.37,0,0,1,3,.68l.59-2a8.13,8.13,0,0,0-3.63-.78,7.35,7.35,0,0,0-7.69,7c0,.24,0,.47,0,.7,0,4.41,2.83,7.36,7.18,7.36a10.19,10.19,0,0,0,4.14-.84Z" style="fill: #403f41"/>
    <path d="M101.76,6.1V8.78H99.53v2h2.23v7.86a5.69,5.69,0,0,0,1,3.79,3.74,3.74,0,0,0,2.83,1.1,7,7,0,0,0,2.32-.36l-.12-2a5.22,5.22,0,0,1-1.52.17c-1.45,0-2-1-2-2.79V10.77H108v-2h-3.75V5.33Z" style="fill: #403f41"/>
    <path d="M116.35,8.48c-4,0-7.15,2.83-7.15,7.62,0,4.56,3,7.42,6.91,7.42,3.45,0,7.18-2.32,7.18-7.65C123.29,11.49,120.49,8.48,116.35,8.48Zm-.06,2c3.1,0,4.32,3.06,4.32,5.51,0,3.24-1.88,5.59-4.38,5.59s-4.35-2.38-4.35-5.54c0-2.73,1.34-5.59,4.41-5.59Z" style="fill: #403f41"/>
    <path d="M126,23.19h2.62V15.51a8.25,8.25,0,0,1,.09-1.22c.36-2,1.67-3.34,3.52-3.34a4.39,4.39,0,0,1,.89.06V8.54a4.25,4.25,0,0,0-.71-.06,4.34,4.34,0,0,0-4,3.16h-.09l-.12-2.86h-2.29c.08,1.34.11,2.8.11,4.5Z" style="fill: #403f41"/>
    <path d="M137.87,23.19V8.78h-2.62V23.19Zm-1.31-20.1a1.6,1.6,0,0,0-1.63,1.57v.07a1.54,1.54,0,0,0,1.47,1.61h.11a1.56,1.56,0,0,0,1.66-1.46V4.73a1.57,1.57,0,0,0-1.5-1.64Z" style="fill: #403f41"/>
    <path d="M141.63,23.19h2.62V14.53a3.91,3.91,0,0,1,.17-1.22,3.78,3.78,0,0,1,3.52-2.68c2.47,0,3.33,1.93,3.33,4.25v8.31h2.62V14.62c0-4.95-3.09-6.14-5.09-6.14a5.35,5.35,0,0,0-4.8,2.68h0l-.15-2.38h-2.32c.09,1.19.12,2.38.12,3.9Z" style="fill: #403f41"/>
    <path d="M169.88,12.71A35.66,35.66,0,0,1,170,8.78h-2.32L167.59,11h-.06A4.82,4.82,0,0,0,163,8.48c-3.33,0-6.52,2.74-6.52,7.62,0,4,2.56,7,6.14,7a5.09,5.09,0,0,0,4.58-2.41h.06V22.3c0,3.66-2,5.06-4.64,5.06a7.88,7.88,0,0,1-4.23-1.16l-.66,2a9.25,9.25,0,0,0,4.8,1.19,7.91,7.91,0,0,0,5.27-1.72c1.37-1.28,2-3.28,2-6.61Zm-2.62,4.35a4.75,4.75,0,0,1-.21,1.4,3.77,3.77,0,0,1-3.63,2.68c-2.8,0-4.26-2.36-4.26-5.18,0-3.34,1.79-5.45,4.29-5.45a3.73,3.73,0,0,1,3.66,2.8,3.25,3.25,0,0,1,.15,1.16Z" style="fill: #403f41"/>
  </g>
</svg>
