<svg width="30" height="30" viewBox="0 0 30 30" xmlns="http://www.w3.org/2000/svg" style="fill-rule:evenodd;clip-rule:evenodd;stroke-linejoin:round;stroke-miterlimit:2;">
    <g transform="matrix(0.065398,0,0,0.065398,-9.64182,-43.5758)">
        <path d="M248.837,895.656C202.367,884.418 167.81,842.525 167.81,792.625C167.81,734.125 215.304,686.63 273.804,686.63C323.892,686.63 365.912,721.447 376.959,768.173C388.163,721.651 430.08,687.044 480.015,687.044C538.515,687.044 586.01,734.539 586.01,793.039C586.01,842.676 551.816,884.39 505.717,895.89C551.816,907.39 586.01,949.104 586.01,998.742C586.01,1057.24 538.515,1104.74 480.015,1104.74C429.834,1104.74 387.751,1069.79 376.798,1022.93C365.845,1069.79 323.762,1104.74 273.581,1104.74C215.081,1104.74 167.586,1057.24 167.586,998.742C167.586,948.759 202.257,906.811 248.837,895.656ZM273.581,957.696C296.235,957.696 314.626,976.088 314.626,998.742C314.626,1021.39 296.235,1039.79 273.581,1039.79C250.927,1039.79 232.535,1021.39 232.535,998.742C232.535,976.088 250.927,957.696 273.581,957.696ZM480.015,957.696C502.669,957.696 521.061,976.088 521.061,998.742C521.061,1021.39 502.669,1039.79 480.015,1039.79C457.362,1039.79 438.97,1021.39 438.97,998.742C438.97,976.088 457.362,957.696 480.015,957.696ZM376.86,817.49C367.568,856.076 337.148,886.465 298.548,895.71C337.271,905.075 367.723,935.726 376.798,974.555C385.817,935.97 415.941,905.462 454.314,895.89C416.028,886.339 385.955,855.949 376.86,817.49ZM480.015,751.993C502.669,751.993 521.061,770.385 521.061,793.039C521.061,815.693 502.669,834.085 480.015,834.085C457.362,834.085 438.97,815.693 438.97,793.039C438.97,770.385 457.362,751.993 480.015,751.993Z" style="fill:rgb(255,87,34);"/>
    </g>
</svg>
