<?xml version="1.0" encoding="utf-8"?>
<!-- Generator: Adobe Illustrator 25.4.1, SVG Export Plug-In . SVG Version: 6.00 Build 0)  -->
<svg version="1.1" id="Layer_1" xmlns="http://www.w3.org/2000/svg" xmlns:xlink="http://www.w3.org/1999/xlink" x="0px" y="0px"
	 viewBox="0 0 30 30" style="enable-background:new 0 0 30 30;" xml:space="preserve">
<style type="text/css">
	.st0{fill-rule:evenodd;clip-rule:evenodd;fill:#FF5722;}
</style>
<path class="st0" d="M5.8,15c-4.1-1-6.6-5.1-5.6-9.2s5.1-6.6,9.2-5.6c2.8,0.7,4.9,2.9,5.6,5.6c1-4.1,5.1-6.6,9.2-5.6
	s6.6,5.1,5.6,9.2c-0.7,2.8-2.8,4.9-5.5,5.6c4.1,1,6.5,5.2,5.5,9.2c-1,4.1-5.2,6.5-9.2,5.5c-2.8-0.7-4.9-2.9-5.5-5.6
	c-1,4.1-5.1,6.6-9.1,5.7c-4.1-1-6.6-5.1-5.7-9.1C0.9,17.9,3,15.7,5.8,15z M7.6,19.4c1.6,0,2.9,1.3,2.9,2.9c0,1.6-1.3,2.9-2.9,2.9
	S4.7,24,4.7,22.4l0,0C4.7,20.8,6,19.4,7.6,19.4z M22.4,19.4c1.6,0,2.9,1.3,2.9,2.9c0,1.6-1.3,2.9-2.9,2.9c-1.6,0-2.9-1.3-2.9-2.9
	l0,0C19.4,20.8,20.8,19.4,22.4,19.4C22.4,19.4,22.4,19.4,22.4,19.4L22.4,19.4z M15,9.4c-0.7,2.8-2.8,4.9-5.6,5.6
	c2.8,0.7,4.9,2.9,5.6,5.7c0.7-2.8,2.8-4.9,5.6-5.6C17.8,14.3,15.7,12.1,15,9.4L15,9.4z M22.4,4.7c1.6,0,3,1.3,3,2.9
	c0,1.6-1.3,3-2.9,3c-1.6,0-3-1.3-3-2.9c0,0,0,0,0,0C19.5,6,20.8,4.7,22.4,4.7L22.4,4.7L22.4,4.7z"/>
</svg>
